Format : AVI
Format/Info : Audio Video Interleave
File size : 757 MiB
Duration : 1h 36mn
Overall bit rate : 1 102 Kbps
Writing application : VirtualDubMod 1.5.10.2 (build 2540/release)
Writing library : VirtualDub build 32839/release

Video
ID : 0
Format : MPEG-4 Visual
Format profile : Advanced Simple@L5
Format settings, BVOP : Yes
Format settings, QPel : No
Format settings, GMC : No warppoints
Format settings, Matrix : Custom
Codec ID : XVID
Codec ID/Hint : XviD
Duration : 1h 36mn
Bit rate : 966 Kbps
Width : 640 pixels
Height : 272 pixels
Display aspect ratio : 2.35:1
Frame rate : 23.976 fps
Color space : YUV
Chroma subsampling : 4:2:0
Bit depth : 8 bits
Scan type : Progressive
Bits/(Pixel*Frame) : 0.231
Stream size : 663 MiB (88%)
Writing library : XviD 1.2.1 (UTC 2008-12-04)

Audio
ID : 1
Format : MPEG Audio
Format version : Version 1
Format profile : Layer 3
Mode : Joint stereo
Mode extension : MS Stereo
Codec ID : 55
Codec ID/Hint : MP3
Duration : 1h 36mn
Bit rate mode : Variable
Bit rate : 129 Kbps
Channel(s) : 2 channels
Sampling rate : 48.0 KHz
Stream size : 84.6 MiB (11%)
Alignment : Aligned on interleaves
Interleave, duration : 24 ms (0.58 video frame)
Interleave, preload duration : 149 ms
Writing library : LAME3.98b
Encoding settings : -m j -V 4 -q 3 -lowpass 17 --abr 129
 
http://www.imdb.com/title/tt1433108/


Users: 7.0/10 (2,875 votes) 46 reviews | Critics: 74 reviews Metascore: 44/100 (based on 24 reviews from Metacritic.com)

An ex-con sets out to avenge his brother's death after they were double-crossed during a heist years ago. During his campaign, however, he's tracked by a veteran cop and an egocentric hit man.
Director:
George Tillman Jr.
Writers:
Tony Gayton, Joe Gayton
Stars:
Dwayne Johnson, Billy Bob Thornton and Maggie Grace

